<svg xmlns="http://www.w3.org/2000/svg" height="512" viewBox="0 0 128 128" width="512" data-name="Layer 2"><path d="M126.25 28.75H1.75A1.746 1.746 0 000 30.5v67a1.746 1.746 0 001.75 1.75h124.5A1.746 1.746 0 00128 97.5v-67a1.746 1.746 0 00-1.75-1.75zm-1.75 67H3.5v-63.5h121z" data-original="#000000" class="active-path" data-old_color="#000000" fill="#FFF"/><path d="M66.914 70.407h-9.906a1.75 1.75 0 000 3.5h5.242v4.822a1.75 1.75 0 003.5 0v-4.822h1.164a5.829 5.829 0 100-11.657h-5.828a2.329 2.329 0 110-4.657h9.906a1.75 1.75 0 000-3.5H65.75v-4.822a1.75 1.75 0 00-3.5 0v4.822h-1.164a5.829 5.829 0 100 11.657h5.827a2.329 2.329 0 110 4.657z" data-original="#000000" class="active-path" data-old_color="#000000" fill="#FFF"/><path d="M118 51.08a11.762 11.762 0 01-11.75-11.75 1.752 1.752 0 00-1.75-1.75h-81a1.752 1.752 0 00-1.75 1.75A11.762 11.762 0 0110 51.08a1.752 1.752 0 00-1.75 1.75v22.34A1.752 1.752 0 0010 76.92a11.762 11.762 0 0111.75 11.75 1.752 1.752 0 001.75 1.75h81a1.752 1.752 0 001.75-1.75A11.762 11.762 0 01118 76.92a1.752 1.752 0 001.75-1.75V52.83a1.752 1.752 0 00-1.75-1.75zM25.15 86.92a15.268 15.268 0 00-13.4-13.4V54.48a15.268 15.268 0 0013.4-13.4h25.74a26.389 26.389 0 000 45.84zM41.08 64A22.92 22.92 0 1164 86.92 22.944 22.944 0 0141.08 64zm75.17 9.52a15.268 15.268 0 00-13.4 13.4H77.11a26.389 26.389 0 000-45.84h25.74a15.268 15.268 0 0013.4 13.4z" data-original="#000000" class="active-path" data-old_color="#000000" fill="#FFF"/></svg>