<svg xmlns="http://www.w3.org/2000/svg" viewBox="0 0 30.262 30.262" width="512" height="512"><path d="M15.131.002C6.773.002 0 6.777 0 15.13c0 8.358 6.773 15.13 15.131 15.13s15.131-6.771 15.131-15.13c0-8.353-6.774-15.128-15.131-15.128zm-2.272 24.146a.868.868 0 01-1.223 0l-.271-.271-.295-.293-1.266-1.266-.02-.029-5.807-5.851a.86.86 0 010-1.22l1.83-1.83a.86.86 0 011.221 0l5.225 5.262 10.98-10.982a.861.861 0 011.219 0l1.83 1.832a.862.862 0 010 1.221L12.859 24.148z" data-original="#030104" class="active-path" data-old_color="#030104" fill="#05B544"/></svg>