<svg xmlns="http://www.w3.org/2000/svg" viewBox="0 0 297 297" width="512" height="512"><path d="M214.002 246c-4.143 0-7.5-3.357-7.5-7.5s3.357-7.5 7.5-7.5h16.416v-18c0-8.284-6.133-15-14.416-15h-37.584v81h37.584c8.283 0 14.416-6.716 14.416-15v-18h-16.416z" data-original="#000000" class="active-path" data-old_color="#000000" fill="#FFF"/><path d="M163.418 118c0-.338.555-.668.533-1H172c32.258 0 58.5-26.243 58.5-58.5S204.258 0 172 0h-47C92.744 0 66.5 26.243 66.5 58.5S92.744 117 125 117h9.053c-.023.332-.635.662-.635 1v164c0 8.284 6.715 15 15 15 8.283 0 15-6.716 15-15V118zM96.5 58.5C96.5 42.785 109.285 30 125 30h47c15.715 0 28.5 12.785 28.5 28.5S187.715 87 172 87h-47c-15.715 0-28.5-12.785-28.5-28.5z" data-original="#000000" class="active-path" data-old_color="#000000" fill="#FFF"/></svg>