<svg width="700pt" height="700pt" viewBox="0 0 700 700" xmlns="http://www.w3.org/2000/svg"><path fill="#fff" d="M653.31 182.34c7.719 25.371 8.133 46.238 8.133 53.422-.074 54.367-25.371 93.371-35.254 108.18-22.887 34.305-49.453 52.52-69.832 66.492-40.125 27.539-76.426 38.594-99.777 45.508-56.996 16.871-102.19 16.047-115.19 15.605-.61-.023-1.098-.047-1.414-.047-.39.219-.875.61-1.024.656a417.204 417.204 0 01-98.414 45.36c-47.77 14.851-90.89 18.82-124.32 18.82-9.058 0-17.387-.29-24.887-.755a3.219 3.219 0 01-.828.098c-.875 0-1.652-.34-2.238-.898-1.266-1.27-.926-2.95-.902-3.047 6.503-7.715 26.223-33.184 27.734-71.363 1.656-42.316-20.16-71.312-26.027-78.641-9.836-8.766-68.758-63.11-67.762-145.96.683-55.367 27.855-97.223 36.57-109.62 14.05-19.965 30.605-35.012 37.008-40.781 21.598-19.43 40.98-30.605 51.984-36.84 27.246-15.484 50.156-23.25 64.352-27.973A398.99 398.99 0 01251.226 9.5c11.758-2.606 45.406-9.496 90.16-9.496 30.969 0 55.195 3.312 67.516 5.257 13.344 2.122 36.984 5.993 66.543 16.22 46.94 16.237 78.398 37.933 88.09 44.87 11.297 8.11 24.469 17.652 39.37 33.31 12.442 13.073 37.399 39.93 50.399 82.683zm-46.578 113.27c13.172-29.531 13.32-54.828 13.297-59.844-.098-23.742-6.406-41.223-9.645-49.988-13.195-35.668-35.789-57.168-48.598-69.098-22.421-20.867-43.874-31.703-60.94-40.152-5.82-2.894-24.98-12.148-52.59-20.254-24.277-7.137-60.75-15.047-106.86-14.855-50.427-.777-90.212 9.18-115.24 17.41-24.595 8.082-63.72 21.426-101.9 55.223-13 11.516-31.067 27.852-44.896 55.512-5.48 10.957-16.777 34.234-16.656 66.203.051 7.621.758 25.176 8.11 45.797 8.836 24.711 22.594 40.953 43.312 65.473 17.582 20.766 30.219 31.652 39.566 55.609 2.945 7.547 4.625 14.047 5.601 18.309a236 236 0 01-3.433 46.527 240.552 240.552 0 01-6.04 25.98c26.66-2.387 52.935-7.547 78.427-15.461 31.02-9.64 60.82-23.375 88.48-40.781.484-.293.949-.61 1.386-.902l3.434-2.118.899-.558h.027l5.746-3.606 11.879.047h1.098c.316.028.656.028.972.051 33.332.098 60.82-4.164 80.52-8.426 20.137-4.355 52.078-11.516 88.82-31.723 14.512-7.965 36.79-20.453 59.555-44.12 10.738-11.126 24.883-26.075 35.668-50.255zm-144.52-116.93c11.395 0 20.695 9.324 20.695 20.719 0 11.371-9.3 20.672-20.695 20.672h-221.84c-11.395 0-20.695-9.3-20.695-20.672 0-11.395 9.3-20.719 20.695-20.719zm-64.723 82.789c11.395 0 20.695 9.324 20.695 20.695s-9.3 20.695-20.695 20.695h-157.12c-11.371 0-20.695-9.324-20.695-20.695s9.324-20.695 20.695-20.695z" fill-rule="evenodd"/></svg>