<svg xmlns="http://www.w3.org/2000/svg" height="512" viewBox="0 0 128 128" width="512" data-name="Layer 1"><path d="M91.372 49.63c.048 0 .1.006.143.006a1.75 1.75 0 001.742-1.61l1.2-14.9a1.75 1.75 0 10-3.488-.281l-1.2 14.9a1.749 1.749 0 001.603 1.885z" data-original="#000000" class="active-path" data-old_color="#000000" fill="#FFF"/><path d="M103.808 14.5H91.2l-2.39-8.475a1.752 1.752 0 00-1.685-1.275h-46.25a1.752 1.752 0 00-1.685 1.275L36.8 14.5H24.192a1.751 1.751 0 00-1.75 1.75V26a1.751 1.751 0 001.75 1.75h2.9l2.211 27.458v.042l2.855 35.409 2.495 30.982a1.75 1.75 0 001.747 1.609h55.2a1.75 1.75 0 001.744-1.609l2.5-30.982 2.85-35.409v-.042L100.9 27.75h2.9a1.751 1.751 0 001.75-1.75v-9.75a1.751 1.751 0 00-1.742-1.75zM42.2 8.25h43.6l1.762 6.25H40.437zm49.926 84.91H35.874l-2.923-36.3h62.1zm-2.142 26.59H38.016l-1.86-23.09h55.688zm5.347-66.39H32.669l-2.063-25.61h66.788zm6.727-29.11H25.942V18h76.116z" data-original="#000000" class="active-path" data-old_color="#000000" fill="#FFF"/><path d="M64 88.256a13.25 13.25 0 10-13.25-13.25A13.264 13.264 0 0064 88.256zm0-23a9.75 9.75 0 11-9.75 9.75 9.761 9.761 0 019.75-9.75z" data-original="#000000" class="active-path" data-old_color="#000000" fill="#FFF"/></svg>