<svg xmlns="http://www.w3.org/2000/svg" viewBox="0 0 207.498 207.498" width="512" height="512"><path d="M137.332 184.286h-.054a2.992 2.992 0 01-.434-.039l-59.382-9.579a2.45 2.45 0 01-.084-.014l-7.213-1.164-66.687 10.758A3.001 3.001 0 010 181.286V37.046a3 3 0 012.522-2.962l67.163-10.833c.141-.023.284-.036.427-.038h.053c.003.002.005 0 .008 0h.052l.044.001h.007c.125.005.25.018.374.038L98.6 27.76l.089.014 38.642 6.233 66.688-10.757a3.001 3.001 0 013.478 2.962v144.239a3 3 0 01-2.522 2.962l-67.158 10.833a3.073 3.073 0 01-.439.039h-.038l-.008.001zm-55.419-14.978l52.418 8.456v-31.769l-31.418-23.338a9.167 9.167 0 01-5.096 1.322l-15.904 45.329zM6 140.13v37.633l61.166-9.866V83.369l-15.558-8.066a9.11 9.11 0 01-4.298 1.669l-10.898 56.093a9.176 9.176 0 014.815 8.067c0 5.054-4.112 9.167-9.167 9.167-4.589 0-8.401-3.39-9.064-7.796L6 140.13zm134.332 7.609v30.024l61.165-9.866v-62.08l-40.402 9.329-3.65 21.639a9.167 9.167 0 014.199 7.701c0 5.054-4.112 9.167-9.167 9.167-3.796 0-7.06-2.319-8.45-5.614l-3.695-.3zm-67.166 20.158l2.729.44 16.329-46.541a9.149 9.149 0 01-3.227-6.977c0-1.621.423-3.146 1.165-4.468L73.166 89.862v78.035zm76.183-22.912a3.172 3.172 0 003.128 2.667c1.746 0 3.167-1.42 3.167-3.167s-1.421-3.167-3.167-3.167a3.17 3.17 0 00-3.157 3.418c.013.083.023.166.029.249zM32.06 137.966c-1.746 0-3.167 1.421-3.167 3.167s1.42 3.167 3.167 3.167 3.167-1.42 3.167-3.167a3.173 3.173 0 00-2.577-3.112 3.367 3.367 0 01-.239-.036 3.378 3.378 0 00-.351-.019zm108.272 3.754l3.323.269c1.013-3.573 4.145-6.265 7.945-6.627l3.162-18.753-14.431 3.332v21.779zm-33.582-23.687l27.582 20.488v-18.205l-27.581-2.286-.001.003zM6 134.072l18.095 2.526a9.191 9.191 0 016.391-4.497l10.963-56.43a9.17 9.17 0 01-4.363-7.805c0-5.054 4.112-9.167 9.167-9.167a9.17 9.17 0 018.827 11.645l12.086 6.266V29.735L6 39.6v94.472zm91.023-16.299a3.155 3.155 0 003.459-.798 2.83 2.83 0 01.151-.175 3.158 3.158 0 00.698-1.956v-.046a3.172 3.172 0 00-3.166-3.146c-.776 0-1.489.281-2.041.747-.061.061-.125.12-.192.177a3.156 3.156 0 00-.934 2.244 3.171 3.171 0 002.025 2.953zm9.871-5.752l27.438 2.274V39.6l-33.167-5.35v71.905a9.212 9.212 0 015.729 5.866zM140.332 39.6v74.182l15.512-3.582 6.496-38.518c-3.012-1.504-5.086-4.618-5.086-8.208 0-5.054 4.112-9.167 9.166-9.167 5.055 0 9.167 4.112 9.167 9.167 0 4.412-3.133 8.105-7.291 8.974l-6.121 36.29 39.322-9.08V29.735L140.332 39.6zM73.166 80.463l21.477 25.892c.171-.071.345-.138.521-.199V33.283l-21.999-3.548v50.728zm-27.554-9.495a3.164 3.164 0 003.061-1.06c.047-.065.097-.129.148-.19a3.149 3.149 0 00.599-1.852c0-1.746-1.42-3.167-3.167-3.167s-3.167 1.42-3.167 3.167a3.171 3.171 0 002.375 3.066c.051.012.101.023.151.036zM166.42 60.309c-1.746 0-3.166 1.42-3.166 3.167s1.42 3.167 3.166 3.167 3.167-1.42 3.167-3.167-1.421-3.167-3.167-3.167z" data-original="#000000" class="active-path" data-old_color="#000000" fill="#FFF"/></svg>