<svg xmlns="http://www.w3.org/2000/svg" viewBox="-70 0 512 512" width="512" height="512" class="hovered-paths"><path d="M363.45 0H7.604A7.607 7.607 0 000 7.605v496.79A7.606 7.606 0 007.605 512h242.532a7.604 7.604 0 100-15.207H15.207V15.207h340.64v481.586h-80.359a7.6 7.6 0 00-7.605 7.602c0 4.2 3.402 7.605 7.605 7.605h87.965c4.2 0 7.602-3.406 7.602-7.605V7.605A7.605 7.605 0 00363.449 0zm0 0" data-original="#000000" class="hovered-path active-path" data-old_color="#000000" fill="#FFF"/><path d="M38.02 96.59a7.604 7.604 0 00-7.606 7.605v228.84c0 4.2 3.406 7.606 7.606 7.606h295.015a7.604 7.604 0 007.606-7.606V38.02c0-4.2-3.403-7.606-7.606-7.606H38.02a7.607 7.607 0 00-7.606 7.606v40.828c0 4.199 3.406 7.601 7.606 7.601s7.605-3.402 7.605-7.601V45.625h279.809v279.809H45.625V104.195a7.604 7.604 0 00-7.605-7.605zm0 0" data-original="#000000" class="hovered-path active-path" data-old_color="#000000" fill="#FFF"/><path d="M162.246 84.352a7.626 7.626 0 00-7.285-.5l-4.625 2.136c-21.313 9.836-37.883 28.219-45.465 50.43-.57 1.668-2.308 6.746-35.555 171.836a7.599 7.599 0 005.954 8.953 7.654 7.654 0 001.507.152 7.607 7.607 0 007.446-6.105c28.468-141.344 34.183-167.164 35.043-169.922 5.492-16.094 16.71-29.746 31.28-38.312v61.234a7.604 7.604 0 1015.207 0 70.886 70.886 0 0111.192-38.262 70.88 70.88 0 0123.89-22.976v61.238a7.602 7.602 0 007.606 7.605h37.711c2.621 15.282 12.996 28.399 27.207 34.465-16.593 38.176-54.464 63.387-96.578 63.485a7.602 7.602 0 00-7.586 7.601v32.34a7.604 7.604 0 1015.207 0v-24.988c48.063-3.133 90.141-34.793 106.172-80.7 4.453-12.769 6.711-26.164 6.711-39.808a7.6 7.6 0 00-7.605-7.602h-73.637V90.758a7.606 7.606 0 00-3.504-6.406 7.604 7.604 0 00-7.285-.497l-4.629 2.133a86.13 86.13 0 00-34.871 29.371V90.758a7.619 7.619 0 00-3.508-6.406zM278.41 191.937c-8.25-3.843-14.422-11.285-16.722-20.074h20.117a105.14 105.14 0 01-3.395 20.075zm0 0" data-original="#000000" class="hovered-path active-path" data-old_color="#000000" fill="#FFF"/><path d="M215.34 205.48v-10.656a7.604 7.604 0 10-15.207 0v10.656a7.604 7.604 0 1015.207 0zm-25.742 0v-10.656a7.604 7.604 0 10-15.207 0v10.656a7.604 7.604 0 1015.207 0zm118.605 162.825h-41.84a7.604 7.604 0 100 15.207h41.84a7.601 7.601 0 007.606-7.602 7.602 7.602 0 00-7.606-7.605zM62.852 383.512h178.164a7.6 7.6 0 007.601-7.602 7.601 7.601 0 00-7.601-7.605H62.852a7.604 7.604 0 100 15.207zm0 33.078h245.351a7.604 7.604 0 100-15.207H62.852a7.604 7.604 0 100 15.207zm0 33.074h245.351c4.203 0 7.606-3.402 7.606-7.601s-3.403-7.606-7.606-7.606H62.852a7.604 7.604 0 100 15.207zm0 0" data-original="#000000" class="hovered-path active-path" data-old_color="#000000" fill="#FFF"/></svg>