<svg xmlns="http://www.w3.org/2000/svg" width="512" height="512"><path d="M135.069 332.43c-1.859-1.86-4.439-2.93-7.069-2.93s-5.21 1.069-7.07 2.93c-1.86 1.861-2.93 4.44-2.93 7.07s1.069 5.21 2.93 7.069c1.86 1.861 4.44 2.931 7.07 2.931s5.21-1.07 7.069-2.931c1.86-1.859 2.931-4.439 2.931-7.069s-1.07-5.21-2.931-7.07z" data-original="#000000" class="active-path" data-old_color="#000000" fill="#FFF"/><path d="M393.041 109.726l-17.169-36.321c3.861-1.385 6.628-5.067 6.628-9.405 0-5.523-4.478-10-10-10h-76.366l4.419-26.135a23.832 23.832 0 00-5.308-19.397A23.833 23.833 0 00277.004 0h-42.008a23.836 23.836 0 00-18.241 8.467 23.837 23.837 0 00-5.308 19.397L215.866 54H139.5c-5.522 0-10 4.477-10 10 0 4.338 2.767 8.02 6.629 9.405l-17.17 36.321A9.998 9.998 0 00118 114v181.5c0 5.522 4.478 10 10 10s10-4.478 10-10V124h167.667c5.522 0 10-4.477 10-10s-4.478-10-10-10H143.788l14.182-30h196.06L374 116.245V442H138v-64c0-5.522-4.478-10-10-10s-10 4.478-10 10v74c0 1.478.327 2.938.959 4.273l17.53 37.083c-2.98 1.732-4.989 4.95-4.989 8.644 0 5.522 4.478 10 10 10h229c5.522 0 10-4.478 10-10 0-3.694-2.009-6.912-4.988-8.644l17.529-37.083A9.994 9.994 0 00394 452V114a9.998 9.998 0 00-.959-4.274zM280.832 24.53L275.85 54h-39.7l-4.982-29.47a3.833 3.833 0 01.862-3.153A3.835 3.835 0 01234.996 20h42.008c1.568 0 2.531.862 2.966 1.376a3.83 3.83 0 01.862 3.154zM354.03 492H157.97l-14.182-30h224.424l-14.182 30z" data-original="#000000" class="active-path" data-old_color="#000000" fill="#FFF"/><path d="M352.71 106.93a10.044 10.044 0 00-7.07-2.93c-2.63 0-5.2 1.07-7.07 2.93-1.859 1.86-2.93 4.44-2.93 7.07s1.07 5.21 2.93 7.07c1.87 1.86 4.44 2.93 7.07 2.93 2.639 0 5.219-1.07 7.07-2.93 1.87-1.86 2.939-4.44 2.939-7.07s-1.069-5.21-2.939-7.07zM258.667 27h-5.334c-5.522 0-10 4.477-10 10s4.478 10 10 10h5.334c5.522 0 10-4.477 10-10s-4.478-10-10-10zM256 199c-46.317 0-84 37.682-84 84 0 46.317 37.683 84 84 84s84-37.683 84-84c0-46.318-37.683-84-84-84zm0 148c-35.29 0-64-28.71-64-64s28.71-64 64-64 64 28.71 64 64-28.71 64-64 64z" data-original="#000000" class="active-path" data-old_color="#000000" fill="#FFF"/></svg>